<svg xmlns="http://www.w3.org/2000/svg" style="display:none" aria-hidden="true"><symbol id="i-layout-dashboard" viewBox="0 0 24 24"><!-- @license lucide-static v1.18.0 - ISC -->

  <rect width="7" height="9" x="3" y="3" rx="1" />
  <rect width="7" height="5" x="14" y="3" rx="1" />
  <rect width="7" height="9" x="14" y="12" rx="1" />
  <rect width="7" height="5" x="3" y="16" rx="1" /></symbol><symbol id="i-bot" viewBox="0 0 24 24"><!-- @license lucide-static v1.18.0 - ISC -->

  <path d="M12 8V4H8" />
  <rect width="16" height="12" x="4" y="8" rx="2" />
  <path d="M2 14h2" />
  <path d="M20 14h2" />
  <path d="M15 13v2" />
  <path d="M9 13v2" /></symbol><symbol id="i-arrow-down-to-line" viewBox="0 0 24 24"><!-- @license lucide-static v1.18.0 - ISC -->

  <path d="M12 17V3" />
  <path d="m6 11 6 6 6-6" />
  <path d="M19 21H5" /></symbol><symbol id="i-arrow-up-from-line" viewBox="0 0 24 24"><!-- @license lucide-static v1.18.0 - ISC -->

  <path d="m18 9-6-6-6 6" />
  <path d="M12 3v14" />
  <path d="M5 21h14" /></symbol><symbol id="i-users" viewBox="0 0 24 24"><!-- @license lucide-static v1.18.0 - ISC -->

  <path d="M16 21v-2a4 4 0 0 0-4-4H6a4 4 0 0 0-4 4v2" />
  <path d="M16 3.128a4 4 0 0 1 0 7.744" />
  <path d="M22 21v-2a4 4 0 0 0-3-3.87" />
  <circle cx="9" cy="7" r="4" /></symbol><symbol id="i-landmark" viewBox="0 0 24 24"><!-- @license lucide-static v1.18.0 - ISC -->

  <path d="M10 18v-7" />
  <path d="M11.119 2.205a2 2 0 0 1 1.762 0l7.84 3.846A.5.5 0 0 1 20.5 7h-17a.5.5 0 0 1-.22-.949z" />
  <path d="M14 18v-7" />
  <path d="M18 18v-7" />
  <path d="M3 22h18" />
  <path d="M6 18v-7" /></symbol><symbol id="i-percent" viewBox="0 0 24 24"><!-- @license lucide-static v1.18.0 - ISC -->

  <line x1="19" x2="5" y1="5" y2="19" />
  <circle cx="6.5" cy="6.5" r="2.5" />
  <circle cx="17.5" cy="17.5" r="2.5" /></symbol><symbol id="i-life-buoy" viewBox="0 0 24 24"><!-- @license lucide-static v1.18.0 - ISC -->

  <circle cx="12" cy="12" r="10" />
  <path d="m4.93 4.93 4.24 4.24" />
  <path d="m14.83 9.17 4.24-4.24" />
  <path d="m14.83 14.83 4.24 4.24" />
  <path d="m9.17 14.83-4.24 4.24" />
  <circle cx="12" cy="12" r="4" /></symbol><symbol id="i-shield" viewBox="0 0 24 24"><!-- @license lucide-static v1.18.0 - ISC -->

  <path d="M20 13c0 5-3.5 7.5-7.66 8.95a1 1 0 0 1-.67-.01C7.5 20.5 4 18 4 13V6a1 1 0 0 1 1-1c2 0 4.5-1.2 6.24-2.72a1.17 1.17 0 0 1 1.52 0C14.51 3.81 17 5 19 5a1 1 0 0 1 1 1z" /></symbol><symbol id="i-scroll-text" viewBox="0 0 24 24"><!-- @license lucide-static v1.18.0 - ISC -->

  <path d="M15 12h-5" />
  <path d="M15 8h-5" />
  <path d="M19 17V5a2 2 0 0 0-2-2H4" />
  <path d="M8 21h12a2 2 0 0 0 2-2v-1a1 1 0 0 0-1-1H11a1 1 0 0 0-1 1v1a2 2 0 1 1-4 0V5a2 2 0 1 0-4 0v2a1 1 0 0 0 1 1h3" /></symbol><symbol id="i-settings" viewBox="0 0 24 24"><!-- @license lucide-static v1.18.0 - ISC -->

  <path d="M9.671 4.136a2.34 2.34 0 0 1 4.659 0 2.34 2.34 0 0 0 3.319 1.915 2.34 2.34 0 0 1 2.33 4.033 2.34 2.34 0 0 0 0 3.831 2.34 2.34 0 0 1-2.33 4.033 2.34 2.34 0 0 0-3.319 1.915 2.34 2.34 0 0 1-4.659 0 2.34 2.34 0 0 0-3.32-1.915 2.34 2.34 0 0 1-2.33-4.033 2.34 2.34 0 0 0 0-3.831A2.34 2.34 0 0 1 6.35 6.051a2.34 2.34 0 0 0 3.319-1.915" />
  <circle cx="12" cy="12" r="3" /></symbol><symbol id="i-log-out" viewBox="0 0 24 24"><!-- @license lucide-static v1.18.0 - ISC -->

  <path d="m16 17 5-5-5-5" />
  <path d="M21 12H9" />
  <path d="M9 21H5a2 2 0 0 1-2-2V5a2 2 0 0 1 2-2h4" /></symbol><symbol id="i-search" viewBox="0 0 24 24"><!-- @license lucide-static v1.18.0 - ISC -->

  <path d="m21 21-4.34-4.34" />
  <circle cx="11" cy="11" r="8" /></symbol><symbol id="i-bell" viewBox="0 0 24 24"><!-- @license lucide-static v1.18.0 - ISC -->

  <path d="M10.268 21a2 2 0 0 0 3.464 0" />
  <path d="M3.262 15.326A1 1 0 0 0 4 17h16a1 1 0 0 0 .74-1.673C19.41 13.956 18 12.499 18 8A6 6 0 0 0 6 8c0 4.499-1.411 5.956-2.738 7.326" /></symbol><symbol id="i-wallet" viewBox="0 0 24 24"><!-- @license lucide-static v1.18.0 - ISC -->

  <path d="M19 7V4a1 1 0 0 0-1-1H5a2 2 0 0 0 0 4h15a1 1 0 0 1 1 1v4h-3a2 2 0 0 0 0 4h3a1 1 0 0 0 1-1v-2a1 1 0 0 0-1-1" />
  <path d="M3 5v14a2 2 0 0 0 2 2h15a1 1 0 0 0 1-1v-4" /></symbol><symbol id="i-trending-up" viewBox="0 0 24 24"><!-- @license lucide-static v1.18.0 - ISC -->

  <path d="M16 7h6v6" />
  <path d="m22 7-8.5 8.5-5-5L2 17" /></symbol><symbol id="i-arrow-up-right" viewBox="0 0 24 24"><!-- @license lucide-static v1.18.0 - ISC -->

  <path d="M7 7h10v10" />
  <path d="M7 17 17 7" /></symbol><symbol id="i-send" viewBox="0 0 24 24"><!-- @license lucide-static v1.18.0 - ISC -->

  <path d="M14.536 21.686a.5.5 0 0 0 .937-.024l6.5-19a.496.496 0 0 0-.635-.635l-19 6.5a.5.5 0 0 0-.024.937l7.93 3.18a2 2 0 0 1 1.112 1.11z" />
  <path d="m21.854 2.147-10.94 10.939" /></symbol><symbol id="i-chevron-right" viewBox="0 0 24 24"><!-- @license lucide-static v1.18.0 - ISC -->

  <path d="m9 18 6-6-6-6" /></symbol><symbol id="i-chevron-left" viewBox="0 0 24 24"><!-- @license lucide-static v1.18.0 - ISC -->

  <path d="m15 18-6-6 6-6" /></symbol><symbol id="i-arrow-right" viewBox="0 0 24 24"><!-- @license lucide-static v1.18.0 - ISC -->

  <path d="M5 12h14" />
  <path d="m12 5 7 7-7 7" /></symbol><symbol id="i-sparkles" viewBox="0 0 24 24"><!-- @license lucide-static v1.18.0 - ISC -->

  <path d="M11.017 2.814a1 1 0 0 1 1.966 0l1.051 5.558a2 2 0 0 0 1.594 1.594l5.558 1.051a1 1 0 0 1 0 1.966l-5.558 1.051a2 2 0 0 0-1.594 1.594l-1.051 5.558a1 1 0 0 1-1.966 0l-1.051-5.558a2 2 0 0 0-1.594-1.594l-5.558-1.051a1 1 0 0 1 0-1.966l5.558-1.051a2 2 0 0 0 1.594-1.594z" />
  <path d="M20 2v4" />
  <path d="M22 4h-4" />
  <circle cx="4" cy="20" r="2" /></symbol><symbol id="i-corner-down-left" viewBox="0 0 24 24"><!-- @license lucide-static v1.18.0 - ISC -->

  <path d="M20 4v7a4 4 0 0 1-4 4H4" />
  <path d="m9 10-5 5 5 5" /></symbol><symbol id="i-pencil" viewBox="0 0 24 24"><!-- @license lucide-static v1.18.0 - ISC -->

  <path d="M21.174 6.812a1 1 0 0 0-3.986-3.987L3.842 16.174a2 2 0 0 0-.5.83l-1.321 4.352a.5.5 0 0 0 .623.622l4.353-1.32a2 2 0 0 0 .83-.497z" />
  <path d="m15 5 4 4" /></symbol><symbol id="i-user-plus" viewBox="0 0 24 24"><!-- @license lucide-static v1.18.0 - ISC -->

  <path d="M16 21v-2a4 4 0 0 0-4-4H6a4 4 0 0 0-4 4v2" />
  <circle cx="9" cy="7" r="4" />
  <line x1="19" x2="19" y1="8" y2="14" />
  <line x1="22" x2="16" y1="11" y2="11" /></symbol><symbol id="i-bar-chart-3" viewBox="0 0 24 24"><!-- @license lucide-static v1.18.0 - ISC -->

  <path d="M3 3v16a2 2 0 0 0 2 2h16" />
  <path d="M18 17V9" />
  <path d="M13 17V5" />
  <path d="M8 17v-3" /></symbol><symbol id="i-banknote" viewBox="0 0 24 24"><!-- @license lucide-static v1.18.0 - ISC -->

  <rect width="20" height="12" x="2" y="6" rx="2" />
  <circle cx="12" cy="12" r="2" />
  <path d="M6 12h.01M18 12h.01" /></symbol><symbol id="i-smartphone" viewBox="0 0 24 24"><!-- @license lucide-static v1.18.0 - ISC -->

  <rect width="14" height="20" x="5" y="2" rx="2" ry="2" />
  <path d="M12 18h.01" /></symbol><symbol id="i-message-circle" viewBox="0 0 24 24"><!-- @license lucide-static v1.18.0 - ISC -->

  <path d="M2.992 16.342a2 2 0 0 1 .094 1.167l-1.065 3.29a1 1 0 0 0 1.236 1.168l3.413-.998a2 2 0 0 1 1.099.092 10 10 0 1 0-4.777-4.719" /></symbol><symbol id="i-building-2" viewBox="0 0 24 24"><!-- @license lucide-static v1.18.0 - ISC -->

  <path d="M10 12h4" />
  <path d="M10 8h4" />
  <path d="M14 21v-3a2 2 0 0 0-4 0v3" />
  <path d="M6 10H4a2 2 0 0 0-2 2v7a2 2 0 0 0 2 2h16a2 2 0 0 0 2-2V9a2 2 0 0 0-2-2h-2" />
  <path d="M6 21V5a2 2 0 0 1 2-2h8a2 2 0 0 1 2 2v16" /></symbol><symbol id="i-plus" viewBox="0 0 24 24"><!-- @license lucide-static v1.18.0 - ISC -->

  <path d="M5 12h14" />
  <path d="M12 5v14" /></symbol><symbol id="i-sliders-horizontal" viewBox="0 0 24 24"><!-- @license lucide-static v1.18.0 - ISC -->

  <path d="M10 5H3" />
  <path d="M12 19H3" />
  <path d="M14 3v4" />
  <path d="M16 17v4" />
  <path d="M21 12h-9" />
  <path d="M21 19h-5" />
  <path d="M21 5h-7" />
  <path d="M8 10v4" />
  <path d="M8 12H3" /></symbol><symbol id="i-download" viewBox="0 0 24 24"><!-- @license lucide-static v1.18.0 - ISC -->

  <path d="M12 15V3" />
  <path d="M21 15v4a2 2 0 0 1-2 2H5a2 2 0 0 1-2-2v-4" />
  <path d="m7 10 5 5 5-5" /></symbol><symbol id="i-more-horizontal" viewBox="0 0 24 24"><!-- @license lucide-static v1.18.0 - ISC -->

  <circle cx="12" cy="12" r="1" />
  <circle cx="19" cy="12" r="1" />
  <circle cx="5" cy="12" r="1" /></symbol><symbol id="i-check" viewBox="0 0 24 24"><!-- @license lucide-static v1.18.0 - ISC -->

  <path d="M20 6 9 17l-5-5" /></symbol></svg>